# xmcd CD database file
#
# Track frame offsets:
#	150
#	24450
#	33337
#	48037
#	66825
#	90525
#	98475
#	109162
#	119475
#	130050
#	159300
#
# Disc length: 2580 seconds
#
# Revision: 0
# Processed by: cddbd v1.5.2PL0 Copyright (c) Steve Scherf et al.
# Submitted via: CDex 1.51
#
DISCID=800a120b
DTITLE=Nadolny, Matthias - You'll never walk alone
DYEAR=1995
DGENRE=Jazz
TTITLE0=Everything happens to me
TTITLE1=Huppekästchen
TTITLE2=Conversation in a flat
TTITLE3=Fupsi
TTITLE4=Ameckestr.29
TTITLE5=There are such things
TTITLE6=Okevi
TTITLE7=For Dolphy
TTITLE8=Nature boy
TTITLE9=Wlatz for Pee Wee
TTITLE10=There is no greater love
EXTD=YEAR: 1995
EXTT0=
EXTT1=
EXTT2=
EXTT3=
EXTT4=
EXTT5=
EXTT6=
EXTT7=
EXTT8=
EXTT9=
EXTT10=
PLAYORDER=
